<svg width="456.24892578124997px" height="122px" xmlns="http://www.w3.org/2000/svg" viewBox="21.875537109375017 14 456.24892578124997 122" style="background: rgba(0, 0, 0, 0);" preserveAspectRatio="xMidYMid"><defs><linearGradient id="editing-gradient-gradient" x1="0" x2="1" y1="0.5" y2="0.5" gradientUnits="objectBoundingBox"><stop offset="0" stop-color="#f0f"></stop><stop offset="1" stop-color="#0ff"></stop></linearGradient></defs><g><g transform="translate(91.05077183246613, 104.47000122070312)"><path d="M6.53 0L-0.83 0L10.75-42.24L24.13-42.24L27.07-18.11L38.98-42.24L50.18-42.24L51.33-10.62L51.33-10.62Q51.58-4.35 54.66-2.43L54.66-2.43L54.66-2.43Q53.95-1.15 51.90 0.06L51.90 0.06L51.90 0.06Q49.86 1.28 47.14 1.28L47.14 1.28L47.14 1.28Q44.42 1.28 42.82 0.51L42.82 0.51L42.82 0.51Q41.22-0.26 40.32-1.54L40.32-1.54L40.32-1.54Q38.72-3.84 38.72-8.26L38.72-8.26L38.72-28.03L26.11 0L18.18 0L13.70-28.74L6.53 0ZM77.76-7.23L77.76-7.23L77.76-7.23Q74.43-3.78 68.35-3.78L68.35-3.78L68.35-3.78Q60.74-3.78 59.14-9.34L59.14-9.34L59.14-9.34Q58.62-11.01 58.62-12.86L58.62-12.86L58.62-12.86Q58.62-14.72 59.01-16.64L59.01-16.64L62.02-32.64L75.01-33.92L71.49-15.30L71.49-15.30Q71.36-14.46 71.17-13.57L71.17-13.57L71.17-13.57Q70.98-12.67 70.98-11.74L70.98-11.74L70.98-11.74Q70.98-10.82 71.30-10.21L71.30-10.21L71.30-10.21Q71.62-9.60 72.06-9.22L72.06-9.22L72.06-9.22Q72.83-8.70 74.21-8.70L74.21-8.70L74.21-8.70Q75.58-8.70 76.77-10.37L76.77-10.37L76.77-10.37Q77.95-12.03 78.53-14.91L78.53-14.91L82.05-32.64L94.66-33.92L89.86-8.77L89.86-8.77Q87.49 3.52 82.62 8.38L82.62 8.38L82.62 8.38Q80.13 10.88 76.90 11.87L76.90 11.87L76.90 11.87Q73.66 12.86 69.50 12.86L69.50 12.86L69.50 12.86Q62.78 12.86 58.94 10.75L58.94 10.75L58.94 10.75Q55.10 8.64 55.10 5.12L55.10 5.12L55.10 5.12Q55.10 2.50 57.09 0.99L57.09 0.99L57.09 0.99Q59.07-0.51 62.14-0.51L62.14-0.51L62.14-0.51Q64.83-0.51 66.88 0.64L66.88 0.64L66.88 0.64Q68.10 1.34 68.67 2.24L68.67 2.24L68.67 2.24Q67.20 3.52 67.20 5.63L67.20 5.63L67.20 5.63Q67.20 8.45 69.76 8.45L69.76 8.45L69.76 8.45Q73.98 8.45 76.42-1.28L76.42-1.28L76.42-1.28Q77.12-4.16 77.76-7.23ZM135.17-42.69L135.17-42.69L135.17-42.69Q150.85-42.69 150.85-31.62L150.85-31.62L150.85-31.62Q150.85-25.54 146.94-21.89L146.94-21.89L146.94-21.89Q143.10-18.24 136.38-18.24L136.38-18.24L136.38-18.24Q133.25-18.24 130.82-20.03L130.82-20.03L130.82-20.03Q129.66-20.80 128.90-21.82L128.90-21.82L128.90-21.82Q133.57-21.82 136.03-24.67L136.03-24.67L136.03-24.67Q138.50-27.52 138.50-33.09L138.50-33.09L138.50-33.09Q138.50-38.66 132.99-38.66L132.99-38.66L131.46-38.66L131.46-38.66Q131.07-38.66 130.75-38.59L130.75-38.59L123.39 0L109.50 0L117.38-41.92L117.38-41.92Q124.22-42.56 128.19-42.62L128.19-42.62L128.19-42.62Q132.16-42.69 135.17-42.69ZM166.46-3.52L166.46-3.52L166.46-3.52Q164.48 1.28 158.14 1.28L158.14 1.28L158.14 1.28Q154.94 1.28 152.90-0.96L152.90-0.96L152.90-0.96Q151.23-2.82 151.23-4.93L151.23-4.93L151.23-4.93Q151.23-9.73 153.47-20.22L153.47-20.22L158.14-44.80L171.14-46.08L164.93-13.70L164.93-13.70Q163.84-8.96 163.84-7.30L163.84-7.30L163.84-7.30Q163.84-3.65 166.46-3.52ZM174.69-1.92L174.69-1.92L174.69-1.92Q173.18-3.58 172.51-6.21L172.51-6.21L172.51-6.21Q171.84-8.83 171.84-13.12L171.84-13.12L171.84-13.12Q171.84-17.41 173.31-21.31L173.31-21.31L173.31-21.31Q174.78-25.22 177.47-28.03L177.47-28.03L177.47-28.03Q182.98-33.92 192.06-33.92L192.06-33.92L192.06-33.92Q195.33-33.92 197.70-32.83L197.70-32.83L208.64-33.92L203.90-8.96L203.90-8.96Q203.71-8.19 203.71-6.78L203.71-6.78L203.71-6.78Q203.71-5.38 204.58-4.48L204.58-4.48L204.58-4.48Q205.44-3.58 206.72-3.46L206.72-3.46L206.72-3.46Q206.08-1.28 203.74 0L203.74 0L203.74 0Q201.41 1.28 198.78 1.28L198.78 1.28L198.78 1.28Q196.16 1.28 194.40 0.29L194.40 0.29L194.40 0.29Q192.64-0.70 192.13-2.37L192.13-2.37L192.13-2.37Q191.10-0.77 188.93 0.26L188.93 0.26L188.93 0.26Q186.75 1.28 183.84 1.28L183.84 1.28L183.84 1.28Q180.93 1.28 178.56 0.51L178.56 0.51L178.56 0.51Q176.19-0.26 174.69-1.92ZM188.19-27.90L188.19-27.90L188.19-27.90Q187.46-26.75 186.82-24.80L186.82-24.80L186.82-24.80Q186.18-22.85 185.12-17.63L185.12-17.63L185.12-17.63Q184.06-12.42 184.06-8.70L184.06-8.70L184.06-8.70Q184.06-4.99 184.64-3.90L184.64-3.90L184.64-3.90Q185.22-2.82 186.24-2.82L186.24-2.82L186.24-2.82Q188.29-2.82 189.79-4.77L189.79-4.77L189.79-4.77Q191.30-6.72 191.87-10.18L191.87-10.18L195.26-28.93L195.26-28.93Q193.92-30.08 192.35-30.08L192.35-30.08L192.35-30.08Q190.78-30.08 189.86-29.57L189.86-29.57L189.86-29.57Q188.93-29.06 188.19-27.90ZM232.45-7.23L232.45-7.23L232.45-7.23Q229.12-3.78 223.04-3.78L223.04-3.78L223.04-3.78Q215.42-3.78 213.82-9.34L213.82-9.34L213.82-9.34Q213.31-11.01 213.31-12.86L213.31-12.86L213.31-12.86Q213.31-14.72 213.70-16.64L213.70-16.64L216.70-32.64L229.70-33.92L226.18-15.30L226.18-15.30Q226.05-14.46 225.86-13.57L225.86-13.57L225.86-13.57Q225.66-12.67 225.66-11.74L225.66-11.74L225.66-11.74Q225.66-10.82 225.98-10.21L225.98-10.21L225.98-10.21Q226.30-9.60 226.75-9.22L226.75-9.22L226.75-9.22Q227.52-8.70 228.90-8.70L228.90-8.70L228.90-8.70Q230.27-8.70 231.46-10.37L231.46-10.37L231.46-10.37Q232.64-12.03 233.22-14.91L233.22-14.91L236.74-32.64L249.34-33.92L244.54-8.77L244.54-8.77Q242.18 3.52 237.31 8.38L237.31 8.38L237.31 8.38Q234.82 10.88 231.58 11.87L231.58 11.87L231.58 11.87Q228.35 12.86 224.19 12.86L224.19 12.86L224.19 12.86Q217.47 12.86 213.63 10.75L213.63 10.75L213.63 10.75Q209.79 8.64 209.79 5.12L209.79 5.12L209.79 5.12Q209.79 2.50 211.78 0.99L211.78 0.99L211.78 0.99Q213.76-0.51 216.83-0.51L216.83-0.51L216.83-0.51Q219.52-0.51 221.57 0.64L221.57 0.64L221.57 0.64Q222.78 1.34 223.36 2.24L223.36 2.24L223.36 2.24Q221.89 3.52 221.89 5.63L221.89 5.63L221.89 5.63Q221.89 8.45 224.45 8.45L224.45 8.45L224.45 8.45Q228.67 8.45 231.10-1.28L231.10-1.28L231.10-1.28Q231.81-4.16 232.45-7.23ZM277.57-10.82L277.57-10.82L277.57-10.82Q279.17-9.73 279.17-7.33L279.17-7.33L279.17-7.33Q279.17-4.93 277.95-3.39L277.95-3.39L277.95-3.39Q276.74-1.86 274.75-0.83L274.75-0.83L274.75-0.83Q270.66 1.28 266.24 1.28L266.24 1.28L266.24 1.28Q261.82 1.28 259.23 0.32L259.23 0.32L259.23 0.32Q256.64-0.64 254.91-2.43L254.91-2.43L254.91-2.43Q251.52-5.82 251.52-12.03L251.52-12.03L251.52-12.03Q251.52-21.70 256.77-27.58L256.77-27.58L256.77-27.58Q262.40-33.92 272.19-33.92L272.19-33.92L272.19-33.92Q278.27-33.92 281.28-31.36L281.28-31.36L281.28-31.36Q283.52-29.44 283.52-26.30L283.52-26.30L283.52-26.30Q283.52-15.04 264.06-15.04L264.06-15.04L264.06-15.04Q263.81-13.38 263.81-11.97L263.81-11.97L263.81-11.97Q263.81-9.02 265.12-7.90L265.12-7.90L265.12-7.90Q266.43-6.78 268.86-6.78L268.86-6.78L268.86-6.78Q271.30-6.78 273.89-7.90L273.89-7.90L273.89-7.90Q276.48-9.02 277.57-10.82ZM264.51-17.79L264.51-17.79L264.51-17.79Q269.06-17.79 271.68-20.61L271.68-20.61L271.68-20.61Q274.30-23.30 274.30-27.58L274.30-27.58L274.30-27.58Q274.30-29.06 273.76-29.86L273.76-29.86L273.76-29.86Q273.22-30.66 272.13-30.66L272.13-30.66L272.13-30.66Q271.04-30.66 270.11-30.24L270.11-30.24L270.11-30.24Q269.18-29.82 268.22-28.42L268.22-28.42L268.22-28.42Q265.86-25.22 264.51-17.79ZM305.73-17.98L305.73-17.98L305.73-17.98Q308.03-22.08 308.03-26.24L308.03-26.24L308.03-26.24Q308.03-28.99 306.05-28.99L306.05-28.99L306.05-28.99Q304.51-28.99 302.91-26.37L302.91-26.37L302.91-26.37Q301.25-23.74 300.74-20.35L300.74-20.35L297.41 0L284.16 1.28L290.69-32.64L301.25-33.92L300.10-27.46L300.10-27.46Q303.23-33.92 310.27-33.92L310.27-33.92L310.27-33.92Q313.98-33.92 316.00-32L316.00-32L316.00-32Q318.02-30.08 318.02-26.14L318.02-26.14L318.02-26.14Q318.02-22.21 315.42-19.71L315.42-19.71L315.42-19.71Q312.83-17.22 308.42-17.22L308.42-17.22L308.42-17.22Q306.50-17.22 305.73-17.98Z" fill="url(#editing-gradient-gradient)"></path></g></g><style>text {
  font-size: 64px;
  font-family: Arial Black;
  dominant-baseline: central;
  text-anchor: middle;
}</style></svg>